<!-- icon666.com - MILLIONS vector ICONS FREE --><svg version="1.1" id="Capa_1" xmlns="http://www.w3.org/2000/svg" xmlns:xlink="http://www.w3.org/1999/xlink" x="0px" y="0px" viewBox="0 0 512 512" style="enable-background:new 0 0 512 512;" xml:space="preserve"><g><g><path d="M457.713,54.286c-72.383-72.382-190.156-72.38-262.538,0c-57.448,57.448-69.292,143.484-35.55,212.731L17.65,408.993 c-23.533,23.533-23.533,61.824,0,85.357C29.416,506.117,44.872,512,60.329,512s30.912-5.882,42.679-17.649l141.976-141.976 c25.622,12.485,53.541,18.736,81.462,18.736c47.539,0,95.078-18.096,131.27-54.287 C530.094,244.441,530.094,126.668,457.713,54.286z M81.767,473.11c-11.822,11.821-31.056,11.821-42.877,0 c-11.821-11.822-11.821-31.056,0-42.877l136.608-136.608c5.827,8.13,12.379,15.899,19.678,23.198 c7.3,7.3,15.069,13.851,23.199,19.679L81.767,473.11z M436.473,295.584c-60.67,60.67-159.388,60.671-220.058,0 s-60.67-159.387,0-220.058c30.339-30.338,70.178-45.503,110.03-45.503c39.841,0,79.698,15.171,110.029,45.503 C497.143,136.197,497.143,234.913,436.473,295.584z" fill="#c1d9ff" style="fill: rgb(193, 217, 255);"></path></g></g><g><g><path d="M424.772,87.228c-54.219-54.219-142.438-54.216-196.656,0c-26.264,26.264-40.728,61.184-40.728,98.328 c0,37.143,14.464,72.063,40.728,98.327c27.112,27.112,62.713,40.663,98.328,40.663c35.605,0,71.222-13.558,98.327-40.663 C478.99,229.665,478.99,141.445,424.772,87.228z M403.532,262.643c-42.509,42.506-111.67,42.505-154.176,0 c-42.507-42.507-42.507-111.669,0-154.176c21.256-21.256,49.167-31.879,77.088-31.879c27.913,0,55.838,10.629,77.087,31.879 C446.038,150.973,446.038,220.137,403.532,262.643z" fill="#c1d9ff" style="fill: rgb(193, 217, 255);"></path></g></g></svg>
