<!-- icon666.com - MILLIONS vector ICONS FREE --><svg viewBox="-48 0 507 507.41255" xmlns="http://www.w3.org/2000/svg"><path d="m268.625 339.945312v-41.304687c15.675781-12.789063 27.648438-29.535156 34.671875-48.507813 3.375-9.15625 5.585937-18.703124 6.582031-28.410156.457032-2.671875.691406-5.371094.710938-8.082031 0-.660156-.074219-1.300781-.097656-1.953125.015624-.75.097656-1.488281.097656-2.242188v-8.738281c12.21875-11.3125 39.609375-47.960937 24.929687-106.605469-11.199219-41.757812-42.480469-75.183593-83.402343-89.121093-29.160157-10.078125-61.4375-4.65625-85.707032 14.390625-15.058594-5.277344-59.738281-15.628906-97.285156 29.417968-2.402344 2.882813-2.597656 7.007813-.484375 10.105469 2.109375 3.097657 6.019531 4.421875 9.582031 3.242188 1.738282-.574219 3.53125-1.082031 5.335938-1.515625-2.703125 2.625-5.179688 5.476562-7.410156 8.515625-11.625 15.851562-22.558594 45.433593-8.671876 96.34375 4.703126 19.300781 13.261719 37.457031 25.15625 53.371093.097657.972657.285157 1.917969.4375 2.871094 1 9.710938 3.210938 19.253906 6.585938 28.414063 7.011719 18.992187 18.984375 35.757812 34.671875 48.550781v41.261719c-75.757813 4.199219-130.460937 64.632812-134.105469 150.085937v.007813c-.1992185 4.519531 1.472656 8.917969 4.621094 12.164062 3.191406 3.316407 7.589844 5.195313 12.191406 5.207031h377.277344c4.625-.011718 9.042969-1.910156 12.238281-5.253906 3.128907-3.25 4.773438-7.652344 4.539063-12.15625-4.15625-84.199218-63.535156-145.929687-142.464844-150.058594zm-134.296875 49.960938v100.691406l-117.328125-.011718c3.359375-77.117188 50.117188-129.773438 117.328125-133.851563zm159.148437-173.015625c-2.003906 17.734375-17.695312 30.691406-35.488281 29.296875-17.789062-1.394531-31.277343-16.636719-30.492187-34.464844s15.554687-31.828125 33.398437-31.652344c17.847657.171876 32.34375 14.457032 32.78125 32.296876-.039062 1.511718-.089843 3.019531-.199219 4.523437zm2.84375-38.292969c-12.714843-13.230468-31.671874-18.410156-49.351562-13.484375 24.394531-17.84375 34.128906-33.753906 37.441406-45.617187 11.738282 12.644531 14.027344 36.542968 11.910156 59.101562zm-192.683593-49.289062c-.730469-.246094-1.492188-.386719-2.265625-.417969-.167969-.007813-.324219-.046875-.488282-.039063-.371093-.058593-.746093-.089843-1.125-.09375-6.839843.824219-13.074218 5.90625-10.582031 49.160157-1.996093-5.285157-3.867187-10.824219-5.5-16.839844-22.53125-82.605469 25.769531-98.230469 27.78125-98.835937 2.863281-.816407 5.074219-3.089844 5.820313-5.96875.746094-2.878907-.089844-5.9375-2.195313-8.039063-3.871093-3.554687-8.839843-5.671875-14.082031-6.003906 18.699219-12.535157 42.496094-14.695313 63.148438-5.734375 3.019531 1.496094 6.644531 1.046875 9.210937-1.140625 20.1875-17.671875 48.300781-23.160157 73.65625-14.386719 35.4375 12.085938 62.523437 41.039062 72.21875 77.207031 6.648437 23.015625 4.742187 47.664063-5.371094 69.382813.433594-11.730469-.882812-23.457032-3.898437-34.800782-.027344-.074218-.03125-.152343-.0625-.222656-3.105469-12.734375-10.71875-23.910156-21.433594-31.457031-3.660156-2.441406-8.347656-2.742187-12.292969-.789063-4.019531 1.917969-6.726562 5.824219-7.105469 10.261719-.503906 5.589844-4.433593 20.183594-29.5 39.222657-13.980468-38.933594-37.945312-58.878907-64.921874-53.472657-24.839844 5.09375-45.21875 22.78125-53.753907 46.65625-4.875-3.089843-9.359375-6.75-13.371093-10.898437-.121094-.140625-.703126-.769532-.839844-.902344-.113282-.117188-.265625-.152344-.386719-.261719-.453125-.375-.945313-.703125-1.46875-.972656-.378906-.238281-.777344-.445313-1.191406-.613281zm1.929687 23.324218c3.753906 2.902344 7.75 5.472657 11.945313 7.679688 3.28125 1.679688 7.132812 1.828125 10.53125.410156 3.398437-1.417968 6-4.257812 7.117187-7.769531 5.789063-20.246094 22.21875-35.683594 42.789063-40.195313 27.980469-5.671874 43.457031 35.015626 47.503906 47.621094 1.246094 3.832032 4.238281 6.839844 8.058594 8.105469 1.089843.347656 2.222656.542969 3.367187.582031-11.664062 6.132813-20.472656 16.578125-24.550781 29.105469-7.125-1.757813-14.570313-1.757813-21.699219 0-5.445312-16.957031-19.457031-29.765625-36.835937-33.667969-17.378907-3.902344-35.527344 1.683594-47.699219 14.6875-.65625-8.839844-.832031-17.703125-.53125-26.558594zm3.914063 64.257813c-.109375-1.5-.15625-3.011719-.199219-4.523437.414062-18.378907 15.328125-33.121094 33.714844-33.316407 18.382812-.195312 33.609375 14.21875 34.417968 32.585938.808594 18.367187-13.097656 34.066406-31.425781 35.484375-18.332031 1.417968-34.480469-11.957032-36.507812-30.230469zm41.636719 273.707031v-15.433594c5.0625 5.675782 10.664062 10.84375 16.726562 15.4375zm100.71875.011719h-16.738282c6.066406-4.59375 11.671875-9.765625 16.738282-15.445313zm0-43.601563c-11.449219 19.609376-29.199219 34.757813-50.359376 42.988282-21.160156-8.230469-38.914062-23.378906-50.359374-42.988282v-28.808593c9.699218 21.050781 24.664062 39.246093 43.449218 52.828125 4.207032 2.722656 9.625 2.722656 13.828125-.007813 18.78125-13.578125 33.742188-31.769531 43.441407-52.820312zm-79.664063-66.144531 3.40625 3.40625-6.421875 32.109375c-7.601562-14.089844-13.648438-28.964844-18.039062-44.359375v-14.40625l27.421874 3.921875-4.734374 3.15625c-2.632813 1.734375-4.34375 4.5625-4.65625 7.699219-.316407 3.136719.792968 6.246094 3.023437 8.472656zm17.671875 17.671875 4.214844 4.214844c4.101562 4.085938 10.734375 4.085938 14.835937 0l4.214844-4.214844 7.597656 37.964844c-5.457031 7.210938-11.933593 13.589844-19.230469 18.929688-7.296874-5.339844-13.777343-11.71875-19.230468-18.929688zm-.371094-24.113281 12.003906-8 12.003907 8-12.003907 12.007813zm62.363282-2.402344c-4.394532 15.394531-10.441407 30.265625-18.039063 44.359375l-6.421875-32.109375 3.402344-3.40625c2.226562-2.21875 3.339844-5.324219 3.03125-8.453125s-2.007813-5.953125-4.625-7.695312l-4.769532-3.179688 27.421876-3.921875zm0-31.363281-50.359376 7.195312-50.359374-7.199218v-30.660156c31.414062 17.019531 69.304687 17.019531 100.71875 0zm-2.472657-48.660156c-31.984375 20.398437-73.382812 18.300781-103.140625-5.222656-9.3125-7.402344-17.164062-16.476563-23.140625-26.761719 15.292969 6.484375 32.804688 5 46.792969-3.964844 13.984375-8.96875 22.640625-24.261719 23.132812-40.867187 2.628907-1.28125 5.558594-1.8125 8.46875-1.539063 2.910157-.273437 5.839844.257813 8.472657 1.539063.480469 16.65625 9.183593 31.992187 23.238281 40.945312 14.050781 8.957031 31.628906 10.367188 46.929688 3.769531-7.578126 12.976563-18.117188 23.972657-30.753907 32.101563zm19.261719 198.617187v-133.875c69.664062 4.136719 122.003906 59.148438 125.6875 133.886719zm0 0" fill="#000000" style="fill: rgb(192, 217, 255);"></path><path d="m170.410156 151.339844 11.835938 4.507812-1.34375 11.71875c-.257813 2.210938.375 4.433594 1.761718 6.179688 1.382813 1.742187 3.402344 2.863281 5.613282 3.117187.324218.039063.644531.058594.96875.058594 4.261718-.007813 7.839844-3.203125 8.328125-7.433594l1.917969-16.609375c.519531-4.753906-2.226563-9.257812-6.6875-10.976562l-12.507813-4.761719-.167969-4.574219c-.015625-2.242187-.953125-4.378906-2.59375-5.910156s-3.839844-2.324219-6.078125-2.1875c-2.222656.074219-4.328125 1.03125-5.847656 2.65625-1.519531 1.628906-2.328125 3.792969-2.25 6.015625l.304687 8.789063c.164063 4.203124 2.816407 7.902343 6.746094 9.410156zm0 0" fill="#000000" style="fill: rgb(192, 217, 255);"></path></svg>