<!-- icon666.com - MILLIONS vector ICONS FREE --><svg viewBox="-52 0 507 507.01606" xmlns="http://www.w3.org/2000/svg"><path d="m286.183594 109.839844c-3.542969 12.699218-13.964844 29.722656-40.070313 48.820312 18.917969-5.273437 39.207031.273438 52.816407 14.429688 2.265624-24.140625-.183594-49.714844-12.746094-63.25zm0 0"></path><path d="m233.410156 506.996094h17.914063v-16.527344c-5.421875 6.078125-11.421875 11.613281-17.914063 16.527344zm0 0"></path><path d="m.0078125 506.972656 125.5624995.011719v-143.257813c-71.925781 4.363282-121.972656 60.71875-125.5624995 143.246094zm0 0"></path><path d="m143.535156 490.46875v16.519531h17.902344c-6.488281-4.914062-12.484375-10.449219-17.902344-16.519531zm0 0"></path><path d="m260.304688 246.523438c18.441406-.054688 33.832031-14.09375 35.578124-32.453126.121094-1.605468.167969-3.222656.214844-4.839843-.777344-19.621094-17.183594-34.972657-36.8125-34.441407-19.628906.527344-35.183594 16.738282-34.90625 36.371094.28125 19.632813 16.292969 35.394532 35.925782 35.363282zm0 0"></path><path d="m185.820312 194.042969c7.625-1.882813 15.59375-1.882813 23.21875 0 4.363282-13.410157 13.789063-24.589844 26.273438-31.152344-1.226562-.039063-2.4375-.25-3.601562-.621094-4.089844-1.355469-7.292969-4.578125-8.625-8.675781-4.332032-13.492188-20.894532-57.039062-50.839844-50.964844-22.011719 4.832032-39.59375 21.351563-45.789063 43.019532-1.195312 3.753906-3.980469 6.796874-7.617187 8.3125-3.640625 1.519531-7.761719 1.359374-11.269532-.4375-4.492187-2.363282-8.769531-5.113282-12.78125-8.21875-.328124 9.476562-.140624 18.964843.558594 28.421874 13.027344-13.917968 32.449219-19.894531 51.046875-15.71875 18.597657 4.175782 33.597657 17.882813 39.425781 36.035157zm-28.855468-60.191407-.324219-9.40625c-.085937-2.378906.78125-4.695312 2.40625-6.4375 1.625-1.742187 3.878906-2.765624 6.257813-2.84375 2.398437-.144531 4.75.699219 6.503906 2.339844s2.757812 3.925782 2.777344 6.328125l.179687 4.894531 13.382813 5.097657c4.777343 1.835937 7.714843 6.65625 7.160156 11.742187l-2.054688 17.773438c-.519531 4.53125-4.351562 7.953125-8.910156 7.957031-.347656 0-.691406-.019531-1.035156-.0625-2.367188-.269531-4.53125-1.46875-6.011719-3.335937-1.480469-1.867188-2.160156-4.246094-1.882813-6.609376l1.4375-12.542968-12.667968-4.828125c-4.203125-1.609375-7.042969-5.570313-7.21875-10.066407zm0 0"></path><path d="m313.535156 124.03125c3.230469 12.140625 4.636719 24.695312 4.175782 37.25 10.820312-23.246094 12.863281-49.621094 5.746093-74.257812-10.375-38.703126-39.363281-69.6875-77.289062-82.621094-27.132813-9.394532-57.222657-3.519532-78.832031 15.394531-2.746094 2.34375-6.625 2.824219-9.859376 1.21875-22.101562-9.589844-47.566406-7.277344-67.578124 6.140625 5.609374.355469 10.929687 2.621094 15.070312 6.421875 2.25 2.25 3.144531 5.523437 2.34375 8.605469-.796875 3.082031-3.167969 5.511718-6.230469 6.386718-2.148437.648438-53.839843 17.367188-29.730469 105.769532 1.746094 6.433594 3.746094 12.371094 5.886719 18.023437-2.667969-46.292969 4.003907-51.726562 11.324219-52.609375.402344.003906.804688.035156 1.199219.097656.179687-.007812.347656.035157.527343.042969.824219.035157 1.640626.183594 2.425782.449219.441406.179688.871094.398438 1.277344.65625.558593.289062 1.085937.640625 1.570312 1.042969.128906.117187.292969.152343.414062.277343.144532.140626.765626.816407.898438.964844 4.292969 4.441406 9.09375 8.351563 14.308594 11.660156 9.136718-25.550781 30.949218-44.480468 57.535156-49.925781 28.867188-5.78125 54.515625 15.5625 69.484375 57.230469 26.824219-20.378906 31.03125-35.992188 31.566406-41.976562.40625-4.75 3.296875-8.933594 7.601563-10.984376 4.222656-2.09375 9.238281-1.769531 13.160156.839844 11.464844 8.078125 19.613281 20.039063 22.9375 33.664063.035156.078125.035156.164062.066406.238281zm0 0"></path><path d="m98.761719 209.230469c.042969 1.617187.09375 3.234375.210937 4.839843 2.140625 18.980469 18.9375 32.847657 37.980469 31.355469 19.039063-1.492187 33.472656-17.804687 32.632813-36.882812-.839844-19.082031-16.648438-34.0625-35.746094-33.878907-19.097656.1875-34.613282 15.472657-35.078125 34.566407zm0 0"></path><path d="m210.273438 382.652344-12.84375-8.558594-12.84375 8.558594 12.84375 12.855468zm0 0"></path><path d="m204.832031 486.035156c-4.5 2.917969-10.292969 2.921875-14.796875.007813-20.101562-14.535157-36.121094-34.007813-46.5-56.535157v30.828126c12.25 20.984374 31.246094 37.199218 53.894532 46.003906 22.644531-8.804688 41.640624-25.019532 53.894531-46.003906v-30.828126c-10.378907 22.527344-26.394531 41.996094-46.492188 56.527344zm0 0"></path><path d="m260.304688 264.488281c-29.097657-.042969-52.910157-23.164062-53.808594-52.25-2.816406-1.367187-5.953125-1.9375-9.066406-1.644531-3.117188-.292969-6.253907.277344-9.066407 1.644531-.523437 17.773438-9.789062 34.140625-24.757812 43.734375-14.964844 9.597656-33.707031 11.1875-50.074219 4.246094 6.398438 11.003906 14.796875 20.71875 24.765625 28.640625 31.847656 25.175781 76.148437 27.417969 110.378906 5.585937 13.523438-8.695312 24.800781-20.46875 32.910157-34.351562-6.71875 2.902344-13.960938 4.398438-21.28125 4.394531zm0 0"></path><path d="m269.289062 363.730469v143.269531l134.507813.015625c-3.941406-79.984375-59.953125-138.855469-134.507813-143.285156zm0 0"></path><path d="m143.535156 313.707031v32.816407l53.894532 7.703124 53.894531-7.703124v-32.820313c-33.621094 18.214844-74.167969 18.214844-107.789063 0zm0 0"></path><path d="m167.816406 372.246094 5.066406-3.382813-29.347656-4.191406v15.417969c4.699219 16.472656 11.171875 32.390625 19.304688 47.472656l6.875-34.367188-3.644532-3.644531c-2.386718-2.382812-3.578124-5.710937-3.238281-9.066406.335938-3.355469 2.167969-6.382813 4.984375-8.238281zm0 0"></path><path d="m227.078125 372.269531c2.800781 1.863281 4.617187 4.886719 4.949219 8.238281.332031 3.347657-.859375 6.667969-3.242188 9.042969l-3.644531 3.644531 6.875 34.363282c8.132813-15.082032 14.605469-30.996094 19.308594-47.472656v-15.414063l-29.351563 4.195313zm0 0"></path><path d="m197.429688 469.347656c7.808593-5.710937 14.742187-12.535156 20.578124-20.253906l-8.128906-40.632812-4.511718 4.511718c-4.386719 4.375-11.488282 4.375-15.875 0l-4.511719-4.511718-8.128907 40.632812c5.835938 7.71875 12.769532 14.542969 20.578126 20.253906zm0 0"></path></svg>