<!-- icon666.com - MILLIONS vector ICONS FREE --><svg version="1.1" id="Capa_1" xmlns="http://www.w3.org/2000/svg" xmlns:xlink="http://www.w3.org/1999/xlink" x="0px" y="0px" viewBox="0 0 512 512" style="enable-background:new 0 0 512 512;" xml:space="preserve"><g><g><path d="M65.957,389.808C45.978,385.219,30,367.379,30,346.029c0-21.429,16.081-39.338,36.169-43.845 c2.454-10.666,5.731-21.083,9.928-31.148c-0.033,0-0.064-0.007-0.097-0.007c-41.353,0-76,33.648-76,75c0,41.353,34.647,75,76,75 c0.077,0,0.15-0.018,0.227-0.018C72.019,410.911,68.416,400.547,65.957,389.808z" fill="#000000" style="fill: rgb(255, 255, 255);"></path></g></g><g><g><path d="M436.064,271.037c4.191,10.052,7.251,20.502,9.688,31.124c20.129,4.475,36.248,22.41,36.248,43.868 c0,21.484-16.154,39.441-36.317,43.89c-2.43,10.732-5.812,21.072-9.983,31.084c0.103,0,0.198,0.026,0.3,0.026 c41.353,0,76-33.647,76-75C512,304.699,477.387,271.073,436.064,271.037z" fill="#000000" style="fill: rgb(255, 255, 255);"></path></g></g><g><g><path d="M256,331.029c-24.814,0-45,20.186-45,45c0,24.814,20.186,45,45,45c24.814,0,45-20.186,45-45 C301,351.215,280.814,331.029,256,331.029z M256,391.029c-8.284,0-15-6.716-15-15c0-8.285,6.716-15,15-15s15,6.714,15,15 C271,384.313,264.284,391.029,256,391.029z" fill="#000000" style="fill: rgb(255, 255, 255);"></path></g></g><g><g><path d="M360.437,221.148c-25.173,30.807-63.151,49.882-104.438,49.882c-41.277,0-79.246-19.067-104.42-49.856 C121.705,238.275,91,289.287,91,346.029c0,91.048,73.585,165.976,165.293,165.942c83.71,0,148.607-61.586,161.938-135.282 C430.889,306.532,396.037,241.546,360.437,221.148z M256,451.029c-41.353,0-75-33.647-75-75c0-41.353,33.647-75,75-75 c41.353,0,75,33.647,75,75C331,417.382,297.353,451.029,256,451.029z" fill="#000000" style="fill: rgb(255, 255, 255);"></path></g></g><g><g><path d="M170.113,196.029c19.328,27.6,51.091,45,85.887,45s66.559-17.401,85.887-45H170.113z" fill="#000000" style="fill: rgb(255, 255, 255);"></path></g></g><g><g><path d="M271,32.89V15.03c0-8.292-6.709-15.001-15-15.001s-15,6.709-15,15v17.86c-28.716,4.25-54.415,19.618-70.887,43.14h171.775 C325.415,52.508,299.716,37.14,271,32.89z" fill="#000000" style="fill: rgb(255, 255, 255);"></path></g></g><g><g><path d="M151,106.029c-16.569,0-30,13.431-30,30c0,16.567,13.431,30,30,30h90v-60H151z" fill="#000000" style="fill: rgb(255, 255, 255);"></path></g></g><g><g><path d="M361,106.029h-90v60h90c16.569,0,30-13.432,30-30C391,119.46,377.569,106.029,361,106.029z" fill="#000000" style="fill: rgb(255, 255, 255);"></path></g></g></svg>